<svg xmlns="http://www.w3.org/2000/svg" role="img" aria-labelledby="title desc" viewBox="0 0 1344 330" width="1344" height="330">
  <title id="title">工具选择、参数和权限：architecture</title>
  <desc id="desc">Agent 的输入、模型、工具、状态、权限与观测面共同构成被测系统 · 来源 S06, S10, S23</desc>
  <defs><marker id="arrow" markerWidth="9" markerHeight="9" refX="7" refY="4.5" orient="auto"><path d="M0,0 L9,4.5 L0,9 z" fill="#176b5b"/></marker></defs>
  <style>
    .canvas{fill:#fffdf8}.eyebrow{font:700 12px ui-monospace,monospace;letter-spacing:.12em;fill:#176b5b}.title{font:800 22px -apple-system,BlinkMacSystemFont,"PingFang SC",sans-serif;fill:#17201d}.subtitle{font:400 12px -apple-system,BlinkMacSystemFont,"PingFang SC",sans-serif;fill:#5f6b65}.node rect{fill:#eef7f2;stroke:#a7cfc0;stroke-width:1.5}.node:nth-of-type(odd) rect{fill:#f5f7e8;stroke:#c6d38b}.node-index{font:700 11px ui-monospace,monospace;fill:#7d8c84}.node-label{font:700 13px -apple-system,BlinkMacSystemFont,"PingFang SC",sans-serif;fill:#173d32}.arrow{stroke:#176b5b;stroke-width:2;fill:none}.source{font:400 11px ui-monospace,monospace;fill:#68756e}
  </style>
  <rect class="canvas" width="100%" height="100%" rx="18"/>
  <text x="32" y="38" class="eyebrow">ARCHITECTURE</text>
  <text x="32" y="72" class="title">工具选择、参数和权限</text>
  <text x="32" y="96" class="subtitle">Agent 的输入、模型、工具、状态、权限与观测面共同构成被测系统 · 来源 S06, S10, S23</text>
  <path d="M 222 172 L 242 172" class="arrow" marker-end="url(#arrow)"/>
<path d="M 440 172 L 460 172" class="arrow" marker-end="url(#arrow)"/>
<path d="M 658 172 L 678 172" class="arrow" marker-end="url(#arrow)"/>
<path d="M 876 172 L 896 172" class="arrow" marker-end="url(#arrow)"/>
<path d="M 1094 172 L 1114 172" class="arrow" marker-end="url(#arrow)"/>
  <g class="node"><rect x="32" y="125" width="190" height="94" rx="12"/><text x="48" y="149" class="node-index">01</text><text x="48" y="173" class="node-label">工具选择、参数和权限 · Identity </text><text x="48" y="192" class="node-label">verifier</text></g>
<g class="node"><rect x="250" y="125" width="190" height="94" rx="12"/><text x="266" y="149" class="node-index">02</text><text x="266" y="173" class="node-label">本页 · Tool registry</text></g>
<g class="node"><rect x="468" y="125" width="190" height="94" rx="12"/><text x="484" y="149" class="node-index">03</text><text x="484" y="173" class="node-label">本页 · Policy engine</text></g>
<g class="node"><rect x="686" y="125" width="190" height="94" rx="12"/><text x="702" y="149" class="node-index">04</text><text x="702" y="173" class="node-label">本页 · Sandbox adapter</text></g>
<g class="node"><rect x="904" y="125" width="190" height="94" rx="12"/><text x="920" y="149" class="node-index">05</text><text x="920" y="173" class="node-label">本页 · Idempotency store</text></g>
<g class="node"><rect x="1122" y="125" width="190" height="94" rx="12"/><text x="1138" y="149" class="node-index">06</text><text x="1138" y="173" class="node-label">本页 · Human approval</text></g>
  <text x="32" y="285" class="source">节点是页面语义关系，不代表模型、企业集成或生产效果已验证。</text>
  </svg>
