<svg xmlns="http://www.w3.org/2000/svg" role="img" aria-labelledby="title desc" viewBox="0 0 1200 760" width="1200" height="760">
<title id="title">能力投资优先级四象限</title>
<desc id="desc">二维四象限以任务重要性为纵轴、证据成熟度为横轴，四格分别是优先补齐、保持优势、暂缓、分享与复用。 SOURCE-EXAMPLE · 组织职级/年限/权重均为 INTERNAL-UNKNOWN · 本图不证明晋升、就业或真实学习效果</desc>
<defs><marker id="arrow" markerWidth="10" markerHeight="10" refX="8" refY="5" orient="auto"><path d="M0 0 L10 5 L0 10z" fill="#0f766e"/></marker><marker id="arrow2" markerWidth="10" markerHeight="10" refX="8" refY="5" orient="auto"><path d="M0 0 L10 5 L0 10z" fill="#64748b"/></marker></defs>

<style>
.bg{fill:#f7f8fb}.panel{fill:#fff;stroke:#cbd5e1;stroke-width:1.5}.primary{fill:#e0f2f1;stroke:#0f766e;stroke-width:2}.secondary{fill:#eef2ff;stroke:#4f46e5;stroke-width:1.7}.warn{fill:#fff7ed;stroke:#c2410c;stroke-width:1.7}.unknown{fill:#fef2f2;stroke:#b91c1c;stroke-width:1.7}.title{font:700 28px system-ui,"PingFang SC",sans-serif;fill:#0f172a}.sub{font:14px system-ui,"PingFang SC",sans-serif;fill:#475569}.h{font:700 15px system-ui,"PingFang SC",sans-serif;fill:#0f172a}.m{font:12px system-ui,"PingFang SC",sans-serif;fill:#334155}.tiny{font:11px system-ui,"PingFang SC",sans-serif;fill:#64748b}.badge{font:700 11px ui-monospace,monospace;fill:#b91c1c}.edge{fill:none;stroke:#0f766e;stroke-width:2;marker-end:url(#arrow)}.dash{fill:none;stroke:#64748b;stroke-width:1.5;stroke-dasharray:5 4;marker-end:url(#arrow2)}
</style>
<rect class="bg" width="1200" height="760"/>
<g data-source-ref="AI测试工程师发展.md:L1355-L1393"><text class="title" x="40" y="54">能力投资优先级四象限</text><text class="sub" x="40" y="82">用任务重要性和当前证据成熟度排序学习投资，并明确每个象限对应的行动而非贴标签。</text></g>
<g><rect class="panel" x="40" y="110" width="1120" height="540" rx="18"/><line x1="600" y1="160" x2="600" y2="610" stroke="#475569" stroke-width="2"/><line x1="120" y1="385" x2="1080" y2="385" stroke="#475569" stroke-width="2"/>
<text class="h" x="500" y="145">任务重要性 ↑</text><text class="h" x="910" y="630">证据成熟度 →</text>
<rect class="warn" x="140" y="190" width="400" height="150" rx="14"/><text class="h" x="168" y="226">优先补齐</text><text class="m" x="168" y="258">高重要 · 低证据</text><text class="m" x="168" y="288">下一步：固定输入 + 故障实验</text><text class="badge" x="168" y="316">owner 确认当前任务优先级</text>
<rect class="primary" x="660" y="190" width="400" height="150" rx="14"/><text class="h" x="688" y="226">保持优势</text><text class="m" x="688" y="258">高重要 · 高证据</text><text class="m" x="688" y="288">下一步：生产使用与漂移复评</text>
<rect class="secondary" x="140" y="430" width="400" height="150" rx="14"/><text class="h" x="168" y="466">暂缓</text><text class="m" x="168" y="498">低重要 · 低证据</text><text class="m" x="168" y="528">记录触发条件，不制造学习焦虑</text>
<rect class="secondary" x="660" y="430" width="400" height="150" rx="14"/><text class="h" x="688" y="466">分享与复用</text><text class="m" x="688" y="498">低重要 · 高证据</text><text class="m" x="688" y="528">模板化、带教或转移维护权</text></g>
<rect class="unknown" x="40" y="676" width="1120" height="52" rx="10"/><text class="badge" x="58" y="698">证据边界</text><text class="m" x="142" y="698">SOURCE-EXAMPLE · 组织职级/年限/权重均为 INTERNAL-UNKNOWN · 本图不证明晋升、就业或真实学习效果</text><text class="tiny" x="58" y="717">重要性由当前任务 owner 定义，成熟度由证据而非自信定义；象限只决定下一步，不证明职级。</text>
</svg>
